<svg width="11" height="8" viewBox="0 0 11 8" fill="none" xmlns="http://www.w3.org/2000/svg">
<path d="M4.79447 7.44375L0.29822 2.30438C-0.232406 1.69969 0.198844 0.75 1.00416 0.75H9.99666C10.1769 0.749846 10.3533 0.801645 10.5049 0.899195C10.6564 0.996744 10.7767 1.13591 10.8511 1.30002C10.9256 1.46414 10.9512 1.64625 10.9249 1.82454C10.8985 2.00283 10.8214 2.16975 10.7026 2.30531L6.20635 7.44281C6.11835 7.54351 6.00983 7.62421 5.88807 7.67951C5.76631 7.73481 5.63413 7.76342 5.50041 7.76342C5.36668 7.76342 5.2345 7.73481 5.11274 7.67951C4.99098 7.62421 4.88246 7.54351 4.79447 7.44281V7.44375Z" fill="black"/>
</svg>
